# xmcd
#
# Track frame offsets:
#	150
#	12329
#	34646
#	46708
#	62305
#	88847
#	105854
#	116866
#	129587
#	143189
#	159686
#	179647
#
# Disc length: 2635 seconds
#
# Revision: 0
# Processed by: cddbd v1.5.2PL0 Copyright (c) Steve Scherf et al.
# Submitted via: EasyCDDAExtractor 11.1.0.1
#
DISCID=9a0a490c
DTITLE=Rio Grande - Southern parts of my country
DYEAR=1900
DGENRE=country
TTITLE0=Dance a final dance
TTITLE1=You can take the boy out of the country
TTITLE2=Cry once more
TTITLE3=I'll never leave you
TTITLE4=Southern parts of my country
TTITLE5=Sunshine is followed by rain
TTITLE6=I ain't beggin' you for money
TTITLE7=Western frontier rules of marraiage
TTITLE8=The lonely love the night
TTITLE9=Baby you see me as I am
TTITLE10=Why won't you know
TTITLE11=I'll just say goodbye
EXTD=
EXTT0=
EXTT1=
EXTT2=
EXTT3=
EXTT4=
EXTT5=
EXTT6=
EXTT7=
EXTT8=
EXTT9=
EXTT10=
EXTT11=
PLAYORDER=
